<svg width="64" height="64" viewBox="0 0 64 64" fill="none" xmlns="http://www.w3.org/2000/svg">
<circle cx="32" cy="32" r="30" fill="#1E1E1E" stroke="#9F32E5" stroke-width="3"/>
<path d="M27.3657 32.0515C27.3657 29.4648 29.4615 27.3673 32.0474 27.3673C34.6334 27.3673 36.7303 29.4648 36.7303 32.0515C36.7303 34.6382 34.6334 36.7357 32.0474 36.7357C29.4615 36.7357 27.3657 34.6382 27.3657 32.0515ZM24.8342 32.0515C24.8342 36.0365 28.0636 39.2667 32.0474 39.2667C36.0313 39.2667 39.2606 36.0365 39.2606 32.0515C39.2606 28.0665 36.0313 24.8362 32.0474 24.8362C28.0636 24.8362 24.8342 28.0665 24.8342 32.0515ZM37.8605 24.5501C37.8603 24.8836 37.9591 25.2097 38.1442 25.487C38.3293 25.7644 38.5925 25.9806 38.9004 26.1084C39.2084 26.2361 39.5473 26.2696 39.8744 26.2047C40.2014 26.1398 40.5018 25.9793 40.7376 25.7436C40.9735 25.5079 41.1341 25.2075 41.1993 24.8804C41.2645 24.5534 41.2313 24.2143 41.1038 23.9061C40.9763 23.598 40.7604 23.3346 40.4832 23.1492C40.2061 22.9638 39.8802 22.8648 39.5468 22.8646H39.5462C39.0993 22.8648 38.6707 23.0425 38.3547 23.3585C38.0386 23.6745 37.8609 24.1031 37.8605 24.5501ZM26.3723 43.489C25.0027 43.4267 24.2583 43.1985 23.7636 43.0057C23.1078 42.7503 22.6398 42.4461 22.1478 41.9546C21.6558 41.4632 21.3513 40.9955 21.0971 40.3395C20.9042 39.8449 20.6761 39.1 20.6138 37.7301C20.5457 36.2489 20.5321 35.804 20.5321 32.0516C20.5321 28.2992 20.5469 27.8555 20.6138 26.3731C20.6762 25.0031 20.906 24.2598 21.0971 23.7637C21.3524 23.1077 21.6565 22.6396 22.1478 22.1474C22.6391 21.6553 23.1066 21.3507 23.7636 21.0964C24.2581 20.9035 25.0027 20.6753 26.3723 20.613C27.853 20.5449 28.2978 20.5313 32.0474 20.5313C35.7971 20.5313 36.2423 20.546 37.7243 20.613C39.0938 20.6754 39.837 20.9053 40.3329 21.0964C40.9888 21.3507 41.4567 21.656 41.9487 22.1474C42.4407 22.6389 42.7441 23.1077 42.9995 23.7637C43.1923 24.2583 43.4204 25.0031 43.4827 26.3731C43.5508 27.8555 43.5644 28.2992 43.5644 32.0516C43.5644 35.804 43.5508 36.2477 43.4827 37.7301C43.4203 39.1 43.1911 39.8447 42.9995 40.3395C42.7441 40.9955 42.44 41.4636 41.9487 41.9546C41.4574 42.4456 40.9888 42.7503 40.3329 43.0057C39.8385 43.1986 39.0938 43.4268 37.7243 43.489C36.2436 43.5572 35.7988 43.5708 32.0474 43.5708C28.2961 43.5708 27.8525 43.5572 26.3723 43.489ZM26.2559 18.0851C24.7605 18.1532 23.7387 18.3904 22.8462 18.7378C21.922 19.0965 21.1397 19.5777 20.3578 20.3585C19.576 21.1393 19.0961 21.9232 18.7375 22.8476C18.3903 23.7409 18.1532 24.7625 18.0851 26.2583C18.0158 27.7566 18 28.2355 18 32.0515C18 35.8674 18.0158 36.3464 18.0851 37.8446C18.1532 39.3406 18.3903 40.3621 18.7375 41.2553C19.0961 42.1792 19.5761 42.964 20.3578 43.7444C21.1395 44.5249 21.922 45.0055 22.8462 45.3652C23.7403 45.7125 24.7605 45.9497 26.2559 46.0179C27.7545 46.086 28.2326 46.103 32.0474 46.103C35.8622 46.103 36.3411 46.0871 37.8389 46.0179C39.3344 45.9497 40.3556 45.7125 41.2486 45.3652C42.1722 45.0055 42.9552 44.5253 43.737 43.7444C44.5188 42.9636 44.9977 42.1792 45.3573 41.2553C45.7045 40.3621 45.9428 39.3405 46.0098 37.8446C46.0779 36.3453 46.0937 35.8674 46.0937 32.0515C46.0937 28.2355 46.0779 27.7566 46.0098 26.2583C45.9417 24.7624 45.7045 23.7403 45.3573 22.8476C44.9977 21.9237 44.5176 21.1406 43.737 20.3585C42.9564 19.5765 42.1722 19.0965 41.2497 18.7378C40.3556 18.3904 39.3343 18.1521 37.84 18.0851C36.3422 18.017 35.8634 18 32.0485 18C28.2337 18 27.7545 18.0159 26.2559 18.0851Z" fill="white"/>
</svg>
