<svg width="64" height="64" viewBox="0 0 64 64" fill="none" xmlns="http://www.w3.org/2000/svg">
<circle cx="32" cy="32" r="30" fill="#1E1E1E" stroke="#9F32E5" stroke-width="3"/>
<path d="M40.9426 22.9027C40.7563 22.8065 40.5749 22.7009 40.3992 22.5865C39.8882 22.2487 39.4197 21.8506 39.0037 21.4009C37.963 20.2101 37.5743 19.0021 37.4312 18.1563H37.4369C37.3173 17.4542 37.3668 17 37.3742 17H32.6341V35.3292C32.6341 35.5753 32.6341 35.8185 32.6238 36.0589C32.6238 36.0888 32.6209 36.1164 32.6192 36.1486C32.6192 36.1618 32.6192 36.1756 32.6163 36.1894C32.6163 36.1928 32.6163 36.1963 32.6163 36.1997C32.5663 36.8574 32.3555 37.4927 32.0024 38.0497C31.6493 38.6068 31.1647 39.0685 30.5912 39.3943C29.9935 39.7344 29.3176 39.9127 28.6299 39.9118C26.4214 39.9118 24.6315 38.111 24.6315 35.887C24.6315 33.6629 26.4214 31.8621 28.6299 31.8621C29.048 31.8617 29.4635 31.9275 29.861 32.057L29.8667 27.2306C28.6601 27.0748 27.4342 27.1707 26.2664 27.5123C25.0987 27.8539 24.0144 28.4338 23.082 29.2155C22.2649 29.9253 21.5781 30.7723 21.0523 31.7183C20.8522 32.0633 20.0972 33.4496 20.0058 35.6995C19.9483 36.9765 20.3318 38.2996 20.5147 38.8464V38.8579C20.6297 39.1799 21.0753 40.2787 21.8015 41.2049C22.3871 41.948 23.0789 42.6007 23.8547 43.1421V43.1306L23.8662 43.1421C26.161 44.7014 28.7053 44.5991 28.7053 44.5991C29.1457 44.5812 30.6211 44.5991 32.2966 43.805C34.1549 42.9247 35.2129 41.6132 35.2129 41.6132C35.8888 40.8295 36.4262 39.9365 36.8021 38.9723C37.2311 37.8448 37.3742 36.4924 37.3742 35.9519V26.2279C37.4317 26.2624 38.1976 26.7689 38.1976 26.7689C38.1976 26.7689 39.301 27.4761 41.0225 27.9367C42.2575 28.2644 43.9215 28.3334 43.9215 28.3334V23.6278C43.3385 23.691 42.1546 23.5071 40.9426 22.9027Z" fill="white"/>
</svg>
