<svg width="627" height="49" viewBox="0 0 627 49" fill="none" xmlns="http://www.w3.org/2000/svg">
<mask id="mask0_4153_2464" style="mask-type:alpha" maskUnits="userSpaceOnUse" x="0" y="0" width="627" height="49">
<rect width="627" height="49" fill="#D9D9D9"/>
</mask>
<g mask="url(#mask0_4153_2464)">
<path d="M627 71.9122C616.834 71.8079 608.043 68.0748 600.471 61.5576C586.87 49.8474 563.88 47.9913 548.819 61.2552C540.984 68.1582 531.448 71.9226 520.778 71.8913C510.538 71.8704 502.146 66.9799 494.616 60.8068C480.091 48.8777 458.582 48.8777 443.448 61.7766C435.644 68.4293 426.56 71.9539 416.288 71.8704C406.468 71.7975 398.434 67.2302 390.967 61.2969C378.994 51.7765 365.498 49.3052 351.099 54.446C346.593 56.0518 342.686 59.4616 338.696 62.3084C319.686 75.8746 302.966 75.1238 285.395 60.5252C272.719 49.9934 249.897 47.9183 234.941 61.4324C220.668 74.3418 196.807 74.5503 182.009 61.3907C168.985 49.8161 146.163 47.7202 130.861 61.1822C122.963 68.1374 113.417 72.225 102.378 71.9643C92.2436 71.7245 83.8731 67.1259 76.7734 60.8485C63.4457 49.0549 40.0251 48.8255 25.101 62.0581C18.0433 68.3146 9.44176 71.3282 0 71.9122V27.0736C10.534 27.4699 19.5347 23.205 26.8129 16.3958C38.9538 5.02972 65.5462 5.77008 77.267 16.5209C94.3441 32.1935 115.78 30.0455 130.84 16.5418C143.874 4.85245 169.658 5.86393 180.685 15.8327C185.569 20.2435 191.902 23.8202 198.203 25.7806C212.214 30.1289 225.31 26.2185 235.666 16.5418C247.775 5.21742 274.284 5.65538 286.813 17.0006C302.987 31.6513 324.297 30.4313 339.578 16.7503C352.475 5.20699 377.303 5.47811 389.423 15.6241C394.632 19.9829 400.954 23.7889 407.413 25.7806C421.434 30.0872 434.436 26.0517 444.855 16.3749C457.101 5.00887 483.599 5.9682 495.298 16.5313C511.682 31.3281 531.028 30.5877 545.826 18.961C555.909 11.036 566.117 7.11524 578.836 8.16842C585.893 8.75236 591.985 11.0673 597.488 15.0819C606.342 21.547 614.954 28.4083 626.979 27.084V71.9226L627 71.9122Z" fill="#FFF845"/>
</g>
</svg>
