<svg width="64" height="64" viewBox="0 0 64 64" fill="none" xmlns="http://www.w3.org/2000/svg">
<circle cx="32" cy="32" r="30" fill="#1E1E1E" stroke="#9F32E5" stroke-width="3"/>
<path d="M47.3418 24.5072C46.9752 23.1288 45.8906 22.0414 44.5106 21.6688C42.0155 21 32.0045 21 32.0045 21C32.0045 21 21.9985 21 19.4983 21.6688C18.1234 22.0363 17.0388 23.1237 16.6671 24.5072C16 27.0087 16 32.2312 16 32.2312C16 32.2312 16 37.4537 16.6671 39.9552C17.0337 41.3336 18.1183 42.421 19.4983 42.7936C21.9985 43.4624 32.0045 43.4624 32.0045 43.4624C32.0045 43.4624 42.0155 43.4624 44.5106 42.7936C45.8855 42.4261 46.9701 41.3387 47.3418 39.9552C48.0089 37.4537 48.0089 32.2312 48.0089 32.2312C48.0089 32.2312 48.0089 27.0087 47.3418 24.5072Z" fill="white"/>
<path d="M28.8066 37.0453L37.122 32.2312L28.8066 27.4171V37.0453Z" fill="black"/>
</svg>
